<svg width="1280" height="340" xmlns="http://www.w3.org/2000/svg" xmlns:xlink="http://www.w3.org/1999/xlink" overflow="hidden"><defs><clipPath id="clip0"><rect x="0" y="0" width="1280" height="340"/></clipPath></defs><g clip-path="url(#clip0)"><rect x="0" y="0" width="1280" height="339.833" fill="#FFFFFF"/><rect x="0" y="-5.99706" width="1289" height="356.825" fill="#57B94F"/><path d="M317 217.893C317 60.0171 445.047-67.9667 603-67.9667 760.953-67.9667 889 60.0171 889 217.893 889 375.769 760.953 503.753 603 503.753 445.047 503.753 317 375.769 317 217.893Z" fill="#9DD799" fill-rule="evenodd"/><path d="M460 45.8186C460 47.0092 459.106 47.9766 458 47.9766L458 47.9766C456.897 47.9766 456 47.0092 456 45.8186L456 17.1482C456 15.9526 456.897 14.9927 458 14.9927L458 14.9927C459.108 14.9927 460 15.955 460 17.1482L460 45.8186Z" fill="#F48120" fill-rule="evenodd"/><path d="M490 21.9893 456 21.9893 456 8.99559 490 8.99559 481.685 15.508Z" fill="#4E9A44" fill-rule="evenodd"/><path d="M483 21.9893 456 21.9893 456 8.99559 483 8.99559 476.394 15.508Z" fill="#8AC53F" fill-rule="evenodd"/><path d="M414 172.915 506 172.915 506 248.878 414 248.878Z" fill="#41B7D2" fill-rule="evenodd"/><path d="M482 172.915 506 172.915 506 248.878 482 248.878Z" fill="#1396BC" fill-rule="evenodd"/><path d="M446.999 190.906C438.165 190.906 431 198.343 431 207.523L431 230.887 463 230.887 463 207.523C463 198.343 455.838 190.906 446.999 190.906Z" fill="#086180" fill-rule="evenodd"/><path d="M449.999 190.906C442.817 190.906 437 198.343 437 207.523L437 230.887 463 230.887 463 207.523C463 198.343 457.181 190.906 449.999 190.906Z" fill="#1396BC" fill-rule="evenodd"/><path d="M465 105.948 475 105.948 475 165.919 465 165.919Z" fill="#F48120" fill-rule="evenodd"/><path d="M465 105.948 470 105.948 470 165.919 465 165.919Z" fill="#F89E1B" fill-rule="evenodd"/><path d="M420 105.948 429 105.948 429 165.919 420 165.919Z" fill="#F89E1B" fill-rule="evenodd"/><path d="M425 105.948 429 105.948 429 165.919 425 165.919Z" fill="#F48120" fill-rule="evenodd"/><path d="M442 105.948 452 105.948 452 165.919 442 165.919Z" fill="#F89E1B" fill-rule="evenodd"/><path d="M447 105.948 452 105.948 452 165.919 447 165.919Z" fill="#F48120" fill-rule="evenodd"/><path d="M492 105.948 501 105.948 501 165.919 492 165.919Z" fill="#F48120" fill-rule="evenodd"/><path d="M492 105.948 497 105.948 497 165.919 492 165.919Z" fill="#F89E1B" fill-rule="evenodd"/><path d="M409 96.9525 511 96.9525 511 106.948 409 106.948Z" fill="#0A88A7" fill-rule="evenodd"/><path d="M472 96.9525 511 96.9525 511 106.948 472 106.948Z" fill="#086180" fill-rule="evenodd"/><path d="M458.568 28.9858 511 96.9525 409 96.9525Z" fill="#F05F22" fill-rule="evenodd"/><path d="M458.568 28.9858 511 96.9525 409 96.9525Z" fill="#DB322A" fill-rule="evenodd"/><path d="M471.936 96.9525 458 28.9858 511 96.9525Z" fill="#CD2728" fill-rule="evenodd"/><path d="M408 165.919 513 165.919 513 175.914 408 175.914Z" fill="#E5323B" fill-rule="evenodd"/><path d="M477 165.919 513 165.919 513 175.914 477 175.914Z" fill="#D22027" fill-rule="evenodd"/><path d="M409 105.948C409 109.26 411.685 111.945 414.997 111.945 418.317 111.945 421 109.26 421 105.948L409 105.948Z" fill="#8AC53F" fill-rule="evenodd"/><path d="M421 105.948C421 109.26 423.91 111.945 427.501 111.945 431.087 111.945 434 109.26 434 105.948L421 105.948Z" fill="#8AC53F" fill-rule="evenodd"/><path d="M434 105.948C434 109.26 436.91 111.945 440.501 111.945 444.087 111.945 447 109.26 447 105.948L434 105.948Z" fill="#8AC53F" fill-rule="evenodd"/><path d="M447 105.948C447 109.26 449.685 111.945 452.998 111.945 456.315 111.945 459 109.26 459 105.948L447 105.948Z" fill="#8AC53F" fill-rule="evenodd"/><path d="M459 105.948C459 109.26 461.911 111.945 465.498 111.945 469.086 111.945 472 109.26 472 105.948L459 105.948Z" fill="#8AC53F" fill-rule="evenodd"/><path d="M472 105.948C472 109.26 474.685 111.945 477.999 111.945 481.312 111.945 484 109.26 484 105.948L472 105.948Z" fill="#4E9A44" fill-rule="evenodd"/><path d="M484 105.948C484 109.26 486.913 111.945 490.501 111.945 494.092 111.945 497 109.26 497 105.948L484 105.948Z" fill="#4E9A44" fill-rule="evenodd"/><path d="M497 105.948C497 109.26 500.132 111.945 503.999 111.945 507.863 111.945 511 109.26 511 105.948L497 105.948Z" fill="#4E9A44" fill-rule="evenodd"/><path d="M414 175.914 506 175.914 506 180.911 414 180.911Z" fill="#0D3759" fill-rule="evenodd"/><path d="M431 211.896 465 211.896 465 213.895 431 213.895Z" fill="#41B7D2" fill-rule="evenodd"/><path d="M445 185.909 448 185.909 448 237.883 445 237.883Z" fill="#41B7D2" fill-rule="evenodd"/><path d="M539 37.679 539 64.2686C539 67.8112 543.172 70.8164 549.001 71.9647 554.833 70.814 559 67.8112 559 64.2686L559 37.679C559 34.1412 554.833 31.136 549.001 29.9853 543.174 31.1385 539 34.1412 539 37.679Z" fill="#E5E034" fill-rule="evenodd"/><path d="M678.975 165.919 670 165.919 670 158.373 678.975 158.373C693.528 158.373 705.36 147.91 705.36 135.045L705.36 102.95 713 102.95 713 135.045C713.003 152.066 697.74 165.919 678.975 165.919Z" fill="#1D1114" fill-rule="evenodd"/><path d="M676.771 165.919 668 165.919 668 158.373 676.771 158.373C690.978 158.373 702.535 147.91 702.535 135.045L702.535 102.95 710 102.95 710 135.045C710 152.066 695.095 165.919 676.771 165.919Z" fill="#301D21" fill-rule="evenodd"/><path d="M729 110.403C729 117.876 720.866 123.939 710.832 123.939L708.168 123.939C698.13 123.939 690 117.876 690 110.403L690 66.513C690 59.0349 698.13 52.974 708.168 52.974L710.832 52.974C720.866 52.974 729 59.0349 729 66.513L729 110.403Z" fill="#A3AF38" fill-rule="evenodd"/><path d="M690 66.6178 690 110.303C690 116.115 695.001 121.053 701.998 122.94 708.996 121.051 714 116.115 714 110.303L714 66.6178C714 60.8059 708.996 55.865 701.998 53.9735 695.001 55.865 690 60.8059 690 66.6178Z" fill="#CDCB31" fill-rule="evenodd"/><path d="M650 247.141C650 254.788 624 254.788 624 247.141L624 187.765C624 180.116 629.821 173.915 636.999 173.915L636.999 173.915C644.182 173.915 650 180.116 650 187.765L650 247.141Z" fill="#301D21" fill-rule="evenodd"/><path d="M650 247.141C650 254.788 637 254.788 637 247.141L637 187.765C637 180.116 639.913 173.915 643.503 173.915L643.503 173.915C647.09 173.915 650 180.116 650 187.765L650 247.141Z" fill="#1D1114" fill-rule="evenodd"/><path d="M599 111.945 581.683 111.945C565.876 111.945 553 99.6832 553 84.611L553 73.9637 560.609 73.9637 560.609 84.611C560.609 95.5121 570.059 104.382 581.683 104.382L599 104.382 599 111.945Z" fill="#1D1114" fill-rule="evenodd"/><path d="M597 111.945 579.686 111.945C563.87 111.945 551 99.6832 551 84.611L551 73.9637 558.612 73.9637 558.612 84.611C558.612 95.5121 568.059 104.382 579.686 104.382L597 104.382 597 111.945Z" fill="#301D21" fill-rule="evenodd"/><path d="M588 77.4185C588 84.8945 576.944 90.9555 563.303 90.9555L559.687 90.9555C546.054 90.9555 535 84.8945 535 77.4185L535 33.5296C535 26.0538 546.051 19.9902 559.687 19.9902L563.303 19.9902C576.944 19.9902 588 26.0538 588 33.5296L588 77.4185Z" fill="#A3AF38" fill-rule="evenodd"/><path d="M535 33.6334 535 77.3122C535 83.1287 541.669 88.067 551 89.9559 560.331 88.0644 567 83.1287 567 77.3122L567 33.6334C567 27.8193 560.328 22.8787 551 20.9897 541.669 22.8811 535 27.8193 535 33.6334Z" fill="#CDCB31" fill-rule="evenodd"/><path d="M679 163.206C679 180.159 661.274 193.905 639.4 193.905L633.6 193.905C611.723 193.905 594 180.159 594 163.206L594 63.6832C594 46.7271 611.723 32.9838 633.6 32.9838L639.4 32.9838C661.274 32.9838 679 46.7271 679 63.6832L679 163.206Z" fill="#A3AF38" fill-rule="evenodd"/><path d="M594 63.7474 594 163.139C594 176.365 604.842 187.601 619.997 191.906 635.16 187.603 646 176.368 646 163.139L646 63.7474C646 50.521 635.16 39.2805 619.997 34.9829 604.842 39.2805 594 50.521 594 63.7474Z" fill="#CDCB31" fill-rule="evenodd"/><path d="M637 151.991C637 161.891 626.149 169.917 612.774 169.917L609.216 169.917C595.846 169.917 585 161.891 585 151.991L585 93.8885C585 83.9863 595.846 75.9628 609.216 75.9628L612.774 75.9628C626.149 75.9628 637 83.9863 637 93.8885L637 151.991Z" fill="#A3AF38" fill-rule="evenodd"/><path d="M585 93.8206 585 152.061C585 159.812 591.663 166.397 601.002 168.917 610.327 166.397 617 159.812 617 152.061L617 93.8206C617 86.0653 610.327 79.4821 601.002 76.9623 591.663 79.4821 585 86.0653 585 93.8206Z" fill="#CDCB31" fill-rule="evenodd"/><path d="M611 148.431C611 153.122 607.191 156.923 602.503 156.923L602.503 156.923C597.804 156.923 594 153.122 594 148.431L594 99.4423C594 94.7571 597.804 90.9554 602.503 90.9554L602.503 90.9554C607.191 90.9554 611 94.7571 611 99.4423L611 148.431Z" fill="#E5E034" fill-rule="evenodd"/><path d="M709 101.624C709 106.216 705.19 109.946 700.495 109.946L700.495 109.946C695.807 109.946 692 106.218 692 101.624L692 76.2842C692 71.6921 695.81 67.9667 700.495 67.9667L700.495 67.9667C705.19 67.9667 709 71.6944 709 76.2842L709 101.624Z" fill="#E5E034" fill-rule="evenodd"/><path d="M561 65.2504C561 70.0639 556.975 73.9638 552.001 73.9638L552.001 73.9638C547.035 73.9638 543 70.0664 543 65.2504L543 40.6977C543 35.8865 547.033 31.9843 552.001 31.9843L552.001 31.9843C556.973 31.9843 561 35.8841 561 40.6977L561 65.2504Z" fill="#E5E034" fill-rule="evenodd"/><path d="M535.587 250.877 529.002 250.877 529.002 247.77C529.002 239.882 535.136 233.46 542.675 233.46L564.964 233.46C567.864 233.46 570.236 230.991 570.236 227.948 570.236 223.582 566.994 220.191 563.021 220.191L542.539 220.191C535.077 220.191 529.002 213.841 529.002 206.029L529.002 204.059C529.002 196.461 534.913 190.274 542.179 190.274L564.764 190.363C566.218 190.714 568.169 190.909 569.261 189.846 570.255 188.877 570.644 186.758 570.275 184.324L570.231 183.777 570.231 180.018C570.231 176.087 567.168 172.889 563.418 172.889L541.753 172.889C534.72 172.889 529 166.904 529 159.545L529 157.405C529 150.525 534.348 144.929 540.925 144.929L546.083 144.929 547.364 151.531 540.925 151.821C537.981 151.821 535.587 154.327 535.587 157.405L535.587 159.545C535.587 163.102 538.353 165.997 541.755 165.997L563.42 165.997C570.81 165.997 576.823 172.285 576.823 180.018L576.823 183.52C577.462 188.214 576.357 192.345 573.752 194.886 572.027 196.572 568.88 198.312 563.673 197.168L542.179 197.168C538.541 197.168 535.587 200.26 535.587 204.059L535.587 206.029C535.587 210.039 538.705 213.299 542.539 213.299L563.021 213.299C570.627 213.299 576.825 219.781 576.825 227.75 576.825 234.79 571.502 240.357 564.964 240.357L542.675 240.357C538.772 240.357 535.59 243.684 535.59 247.772L535.59 250.877Z" fill="#D22027" fill-rule="evenodd"/><path d="M552 250.877 545.431 250.877 545.431 154.532C545.431 143.665 539.016 134.821 531.124 134.821L499 134.821 499 127.937 531.124 127.937C542.634 127.937 552 139.869 552 154.532L552 250.877Z" fill="#E0B624" fill-rule="evenodd"/><path d="M550 250.877 543.428 250.877 543.428 154.532C543.428 143.665 537.012 134.821 529.126 134.821L497 134.821 497 127.937 529.126 127.937C540.635 127.937 550 139.869 550 154.532L550 250.877Z" fill="#FFCC07" fill-rule="evenodd"/><path d="M533.587 250.877 527 250.877 527 247.77C527 239.882 533.133 233.46 540.672 233.46L562.958 233.46C565.867 233.46 568.231 230.991 568.231 227.948 568.231 223.582 565.002 220.191 561.017 220.191L540.531 220.191C533.069 220.191 527 213.841 527 206.029L527 204.059C527 196.461 532.91 190.274 540.171 190.274L562.765 190.363C564.219 190.714 566.172 190.909 567.26 189.846 568.254 188.877 568.643 186.758 568.269 184.324L568.229 183.777 568.229 180.018C568.229 176.087 565.176 172.889 561.421 172.889L539.755 172.889C532.722 172.889 527 166.904 527 159.545L527 157.405C527 150.525 532.345 144.929 538.922 144.929L541.591 144.929 543.351 151.62 538.922 151.821C535.983 151.821 533.589 154.327 533.589 157.405L533.589 159.545C533.589 163.102 536.357 165.997 539.758 165.997L561.424 165.997C568.814 165.997 574.816 172.285 574.816 180.018L574.816 183.52C575.473 188.214 574.355 192.345 571.758 194.886 570.033 196.572 566.883 198.312 561.674 197.168L540.174 197.168C536.543 197.168 533.589 200.26 533.589 204.059L533.589 206.029C533.589 210.039 536.707 213.299 540.533 213.299L561.02 213.299C568.63 213.299 574.818 219.781 574.818 227.75 574.818 234.79 569.503 240.357 562.96 240.357L540.674 240.357C536.771 240.357 533.592 243.684 533.592 247.772L533.592 250.877Z" fill="#E5323B" fill-rule="evenodd"/><path d="M543 156.923 550 156.923 550 181.911 543 181.911Z" fill="#FFCC07" fill-rule="evenodd"/><path d="M543 203.9 550 203.9 550 229.887 543 229.887Z" fill="#FFCC07" fill-rule="evenodd"/><path d="M550 161.921 552 161.921 552 181.911 550 181.911Z" fill="#E0B624" fill-rule="evenodd"/><path d="M550 208.898 552 208.898 552 229.887 550 229.887Z" fill="#E0B624" fill-rule="evenodd"/><path d="M386 247.878 523 247.878 523 252.876 386 252.876Z" fill="#FFCC07" fill-rule="evenodd"/><path d="M777.353 122.94 680.647 122.94C671.47 122.94 664 130.434 664 139.638L664 248.878 671.686 248.878 671.686 139.638C671.686 134.68 675.706 130.651 680.647 130.651L777.353 130.651C782.294 130.651 786.312 134.682 786.312 139.638L786.312 248.878 794 248.878 794 139.638C794 130.434 786.53 122.94 777.353 122.94Z" fill="#086180" fill-rule="evenodd"/><path d="M775.224 122.94 677.776 122.94C668.523 122.94 661 130.434 661 139.638L661 248.878 668.743 248.878 668.743 139.638C668.743 134.68 672.797 130.651 677.776 130.651L775.224 130.651C780.206 130.651 784.257 134.682 784.257 139.638L784.257 248.878 792 248.878 792 139.638C792 130.434 784.477 122.94 775.224 122.94Z" fill="#41B7D2" fill-rule="evenodd"/><path d="M440 247.878 833 247.878 833 252.876 440 252.876Z" fill="#FFCC07" fill-rule="evenodd"/><path d="M697 208.898 699 208.898 699 223.89 697 223.89Z" fill="#E5323B" fill-rule="evenodd"/><path d="M705 208.898 707 208.898 707 223.89 705 223.89Z" fill="#E5323B" fill-rule="evenodd"/><path d="M706 208.898 708 208.898 708 223.89 706 223.89Z" fill="#D22027" fill-rule="evenodd"/><path d="M698 208.898 701 208.898 701 223.89 698 223.89Z" fill="#D22027" fill-rule="evenodd"/><path d="M686 202.901 719 202.901 719 208.898 686 208.898Z" fill="#E5323B" fill-rule="evenodd"/><path d="M715 202.901 719 202.901 719 208.898 715 208.898Z" fill="#D22027" fill-rule="evenodd"/><path d="M743 208.898 746 208.898 746 223.89 743 223.89Z" fill="#E5323B" fill-rule="evenodd"/><path d="M751 208.898 753 208.898 753 223.89 751 223.89Z" fill="#E5323B" fill-rule="evenodd"/><path d="M752 208.898 755 208.898 755 223.89 752 223.89Z" fill="#D22027" fill-rule="evenodd"/><path d="M745 208.898 747 208.898 747 223.89 745 223.89Z" fill="#D22027" fill-rule="evenodd"/><path d="M732 202.901 765 202.901 765 208.898 732 208.898Z" fill="#E5323B" fill-rule="evenodd"/><path d="M761 202.901 765 202.901 765 208.898 761 208.898Z" fill="#D22027" fill-rule="evenodd"/><path d="M735 129.936 738 129.936 738 224.89 735 224.89Z" fill="#FFCC07" fill-rule="evenodd"/><path d="M738 129.936 739 129.936 739 224.89 738 224.89Z" fill="#E0B624" fill-rule="evenodd"/><path d="M759 129.936 761 129.936 761 224.89 759 224.89Z" fill="#FFCC07" fill-rule="evenodd"/><path d="M761 129.936 763 129.936 763 224.89 761 224.89Z" fill="#E0B624" fill-rule="evenodd"/><path d="M730 222.891 768 222.891 768 229.887 730 229.887Z" fill="#E5323B" fill-rule="evenodd"/><path d="M759 222.891 768 222.891 768 229.887 759 229.887Z" fill="#D22027" fill-rule="evenodd"/><path d="M689 129.936 692 129.936 692 224.89 689 224.89Z" fill="#FFCC07" fill-rule="evenodd"/><path d="M692 129.936 693 129.936 693 224.89 692 224.89Z" fill="#E0B624" fill-rule="evenodd"/><path d="M712 129.936 715 129.936 715 224.89 712 224.89Z" fill="#FFCC07" fill-rule="evenodd"/><path d="M715 129.936 716 129.936 716 224.89 715 224.89Z" fill="#E0B624" fill-rule="evenodd"/><path d="M683 222.891 722 222.891 722 229.887 683 229.887Z" fill="#E5323B" fill-rule="evenodd"/><path d="M713 222.891 722 222.891 722 229.887 713 229.887Z" fill="#D22027" fill-rule="evenodd"/><text font-family="Cooper Black,Cooper Black_MSFontService,sans-serif" font-weight="900" font-size="43" transform="matrix(1 0 0 0.99951 502.014 307)">PM</text><text font-family="Cooper Black,Cooper Black_MSFontService,sans-serif" font-weight="900" font-size="80" transform="matrix(1 0 0 0.99951 568.847 307)">4</text><text font-family="Cooper Black,Cooper Black_MSFontService,sans-serif" font-weight="900" font-size="43" transform="matrix(1 0 0 0.99951 616.847 307)">Fun</text></g></svg>